<svg width="204" height="20" viewBox="0 0 204 20" fill="none" xmlns="http://www.w3.org/2000/svg">
<g clip-path="url(#clip0_2772_294411)">
<path d="M40.7692 7.88769C40.7692 5.99683 42.3615 4.46283 44.3241 4.46283C46.2868 4.46283 47.8791 5.99683 47.8791 7.88769C47.8791 7.91318 47.8839 15.5531 47.8839 18.5307C47.8839 19.1772 48.4275 19.6986 49.0985 19.6986H50.7798C51.4509 19.6986 51.9944 19.1749 51.9944 18.5284V7.88769C51.9944 3.80705 48.5622 0.498047 44.3266 0.498047C40.0909 0.498047 36.6562 3.80705 36.6562 7.88769C36.6562 7.91318 36.6611 15.5531 36.6611 18.5307C36.6611 19.1772 37.2046 19.6986 37.8757 19.6986H39.557C40.228 19.6986 40.7716 19.1749 40.7716 18.5284V7.88769H40.7692Z" fill="#3B68FC"/>
<path d="M55.6016 8.70176C55.6016 8.72725 55.604 15.7044 55.604 18.5291C55.604 19.1756 56.1476 19.697 56.8186 19.697H58.4999C59.1709 19.697 59.7145 19.1733 59.7145 18.5268V8.69945C59.7145 6.25941 61.7686 4.4566 64.2989 4.4566C66.8292 4.4566 68.8809 6.25941 68.8809 8.69945C68.8809 8.72494 68.8833 15.7021 68.8857 18.5268C68.8857 19.1733 69.4293 19.6947 70.1003 19.6947H71.7816C72.4527 19.6947 72.9962 19.171 72.9962 18.5245V8.69713C72.9962 4.07194 69.1046 0.494141 64.3013 0.494141C59.498 0.494141 55.604 4.06962 55.604 8.69713L55.6016 8.70176Z" fill="#3B68FC"/>
<path d="M36.6519 7.88903C36.6519 5.99817 35.0597 4.46417 33.097 4.46417C31.1343 4.46417 29.5372 5.99817 29.5372 7.88903L29.5324 18.5297C29.5324 19.1763 28.9888 19.6976 28.3178 19.6976H26.6365C25.9655 19.6976 25.4219 19.1739 25.4219 18.5274V7.88671C25.4219 3.80607 28.8566 0.49707 33.0922 0.49707C37.3278 0.49707 40.7625 3.80607 40.7625 7.88671" fill="#3B68FC"/>
<path d="M79.6506 0.845703H77.8299C77.159 0.845703 76.6152 1.36962 76.6152 2.0159V18.5262C76.6152 19.1724 77.159 19.6964 77.8299 19.6964H79.6506C80.3215 19.6964 80.8653 19.1724 80.8653 18.5262V2.0159C80.8653 1.36962 80.3215 0.845703 79.6506 0.845703Z" fill="#3B68FC"/>
<path d="M8.06573 17.6786C7.70976 18.3251 6.84147 18.5314 6.22573 18.1027C5.24199 17.4168 4.38332 16.5617 3.70023 15.5862C3.28893 14.9976 2.94498 14.3743 2.67319 13.7231C2.38937 13.0465 2.81029 12.2841 3.54629 12.108L4.95336 11.7697C5.55707 11.6237 6.17041 11.9296 6.42055 12.4788C6.57449 12.8194 6.76209 13.1461 6.98097 13.459C7.37784 14.0267 7.85648 14.5179 8.40728 14.9211C8.89554 15.2803 9.02783 15.9361 8.7392 16.4598L8.06573 17.681V17.6786Z" fill="#FFCC00"/>
<path d="M12.3014 20.0001C11.9358 20.0001 11.5678 19.9816 11.2022 19.9445C10.4494 19.8681 9.94666 19.152 10.1295 18.4453L10.4782 17.0897C10.6273 16.5127 11.1878 16.1257 11.8035 16.1721C13.2394 16.281 14.6874 15.9195 15.8972 15.1363C17.3211 14.2117 18.2856 12.8098 18.6127 11.1877C18.9422 9.56566 18.5935 7.91579 17.6362 6.54631C17.1936 5.91371 16.6356 5.36684 15.9958 4.93352C15.4883 4.59057 15.3031 3.95102 15.5677 3.40878L16.1883 2.14821C16.5202 1.47622 17.3909 1.25144 18.0355 1.66159C19.1683 2.38457 20.1473 3.31841 20.9145 4.41446C22.4635 6.62973 23.0239 9.29223 22.4924 11.9153C21.9608 14.5361 20.4022 16.8024 18.1028 18.2947C16.3759 19.4162 14.3482 20.0001 12.299 20.0001H12.3014Z" fill="#3B68FC"/>
<path d="M3.28073 10.0559C2.52308 10.0606 1.92177 9.421 2.02038 8.69571C2.40282 5.87101 4.02154 3.32669 6.51096 1.70927C8.44718 0.453328 10.7009 -0.128297 12.9859 0.0223233C13.7555 0.0733023 14.3063 0.756885 14.15 1.48449L13.8542 2.85166C13.7267 3.43792 13.1759 3.84112 12.5553 3.81794C11.2012 3.76465 9.86867 4.12614 8.72138 4.86997C7.23253 5.83625 6.24879 7.34013 5.96738 9.0178C5.86876 9.60406 5.36126 10.0443 4.74311 10.049L3.27832 10.0559H3.28073Z" fill="#FF4059"/>
<path d="M12.3074 12.4884C13.7327 12.4884 14.8882 11.3752 14.8882 10.002C14.8882 8.62882 13.7327 7.51562 12.3074 7.51562C10.882 7.51562 9.72656 8.62882 9.72656 10.002C9.72656 11.3752 10.882 12.4884 12.3074 12.4884Z" fill="#3B68FC"/>
<path d="M90.8316 9.98075C91.368 9.01447 92.116 8.26368 93.0709 7.73304C94.0257 7.20007 95.1201 6.93359 96.354 6.93359C97.9487 6.93359 99.2644 7.30667 100.299 8.05282C101.333 8.79896 102.016 9.83245 102.348 11.1579H100.027C99.8055 10.3955 99.375 9.79537 98.7352 9.3551C98.0954 8.91482 97.3017 8.69237 96.354 8.69237C95.1225 8.69237 94.1268 9.1002 93.3691 9.91355C92.6115 10.7292 92.2314 11.8809 92.2314 13.3732C92.2314 14.8655 92.6115 16.0449 93.3691 16.8676C94.1268 17.6902 95.1225 18.1003 96.354 18.1003C97.3017 18.1003 98.0906 17.8871 98.7232 17.4608C99.3558 17.0344 99.7887 16.425 100.027 15.6348H102.348C102.002 16.9139 101.306 17.9358 100.263 18.7051C99.2211 19.4744 97.9174 19.8591 96.3516 19.8591C95.1201 19.8591 94.0258 19.5926 93.0685 19.0597C92.1136 18.5267 91.3656 17.7736 90.8292 16.798C90.2928 15.8248 90.0234 14.6824 90.0234 13.3732C90.0234 12.0639 90.2928 10.9494 90.8292 9.98307L90.8316 9.98075Z" fill="#3B68FC"/>
<path d="M104.624 9.98075C105.16 9.01446 105.899 8.26368 106.839 7.73304C107.78 7.20007 108.826 6.93359 109.978 6.93359C111.13 6.93359 112.102 7.16995 112.941 7.64267C113.778 8.11306 114.401 8.70859 114.813 9.4223V7.13983H116.992V19.6505H114.813V17.3217C114.387 18.0517 113.75 18.6565 112.905 19.1361C112.059 19.6158 111.077 19.8545 109.954 19.8545C108.831 19.8545 107.758 19.581 106.827 19.0318C105.894 18.485 105.16 17.7157 104.624 16.7262C104.088 15.7367 103.818 14.6106 103.818 13.3477C103.818 12.0848 104.088 10.947 104.624 9.98075ZM114.221 10.9053C113.827 10.2055 113.293 9.66792 112.622 9.29485C111.95 8.92178 111.212 8.73408 110.406 8.73408C109.601 8.73408 108.867 8.91714 108.203 9.28095C107.539 9.64707 107.01 10.18 106.616 10.8798C106.221 11.5796 106.024 12.4023 106.024 13.3454C106.024 14.2885 106.221 15.1366 106.616 15.8457C107.01 16.5547 107.539 17.0946 108.203 17.4654C108.867 17.8385 109.601 18.0238 110.406 18.0238C111.212 18.0238 111.95 17.8385 112.622 17.4654C113.293 17.0923 113.827 16.5524 114.221 15.8457C114.615 15.1366 114.813 14.3116 114.813 13.3685C114.813 12.4254 114.615 11.6028 114.221 10.903V10.9053Z" fill="#3B68FC"/>
<path d="M122.206 3.98633V19.6485H120.049V3.98633H122.206Z" fill="#3B68FC"/>
<path d="M125.287 9.98075C125.823 9.01446 126.571 8.26368 127.526 7.73304C128.481 7.20007 129.575 6.93359 130.809 6.93359C132.404 6.93359 133.719 7.30667 134.754 8.05282C135.788 8.79896 136.471 9.83245 136.803 11.1579H134.482C134.261 10.3955 133.83 9.79537 133.19 9.3551C132.55 8.91482 131.757 8.69237 130.809 8.69237C129.578 8.69237 128.582 9.1002 127.824 9.91355C127.067 10.7292 126.687 11.8809 126.687 13.3732C126.687 14.8655 127.067 16.0449 127.824 16.8676C128.582 17.6902 129.578 18.1003 130.809 18.1003C131.757 18.1003 132.546 17.8871 133.178 17.4608C133.811 17.0344 134.244 16.425 134.482 15.6348H136.803C136.457 16.9139 135.761 17.9358 134.718 18.7051C133.676 19.4744 132.373 19.8591 130.807 19.8591C129.575 19.8591 128.481 19.5926 127.524 19.0597C126.569 18.5267 125.821 17.7736 125.284 16.798C124.748 15.8248 124.479 14.6824 124.479 13.3732C124.479 12.0639 124.748 10.9494 125.284 9.98307L125.287 9.98075Z" fill="#3B68FC"/>
<path d="M150.596 7.13867V19.6494H148.438V17.8002C148.027 18.4398 147.454 18.938 146.721 19.2949C145.985 19.6517 145.177 19.8325 144.291 19.8325C143.281 19.8325 142.372 19.6309 141.566 19.2277C140.76 18.8245 140.123 18.2197 139.659 17.4133C139.192 16.6069 138.959 15.6244 138.959 14.4681V7.13867H141.092V14.1923C141.092 15.4251 141.417 16.3728 142.064 17.0356C142.711 17.6983 143.596 18.0273 144.717 18.0273C145.838 18.0273 146.778 17.6844 147.442 17.0008C148.106 16.3172 148.438 15.3185 148.438 14.0093V7.13867H150.596Z" fill="#3B68FC"/>
<path d="M155.808 3.98633V19.6485H153.65V3.98633H155.808Z" fill="#3B68FC"/>
<path d="M158.894 9.98075C159.43 9.01446 160.168 8.26368 161.109 7.73304C162.049 7.20007 163.096 6.93359 164.248 6.93359C165.4 6.93359 166.372 7.16995 167.211 7.64267C168.048 8.11306 168.671 8.70859 169.082 9.4223V7.13983H171.261V19.6505H169.082V17.3217C168.657 18.0517 168.019 18.6565 167.175 19.1361C166.328 19.6158 165.347 19.8545 164.224 19.8545C163.1 19.8545 162.028 19.581 161.097 19.0318C160.164 18.485 159.43 17.7157 158.894 16.7262C158.357 15.7367 158.088 14.6106 158.088 13.3477C158.088 12.0848 158.357 10.947 158.894 9.98075ZM168.491 10.9053C168.096 10.2055 167.562 9.66792 166.891 9.29485C166.22 8.92178 165.482 8.73408 164.676 8.73408C163.87 8.73408 163.136 8.91714 162.473 9.28095C161.809 9.64707 161.28 10.18 160.885 10.8798C160.491 11.5796 160.294 12.4023 160.294 13.3454C160.294 14.2885 160.491 15.1366 160.885 15.8457C161.28 16.5547 161.809 17.0946 162.473 17.4654C163.136 17.8385 163.87 18.0238 164.676 18.0238C165.482 18.0238 166.22 17.8385 166.891 17.4654C167.562 17.0923 168.096 16.5524 168.491 15.8457C168.885 15.1366 169.082 14.3116 169.082 13.3685C169.082 12.4254 168.885 11.6028 168.491 10.903V10.9053Z" fill="#3B68FC"/>
<path d="M176.948 8.85019V16.2259C176.948 16.8354 177.083 17.264 177.352 17.5143C177.622 17.7646 178.086 17.892 178.75 17.892H180.337V19.6508H178.394C177.193 19.6508 176.292 19.3843 175.693 18.8513C175.091 18.3184 174.793 17.4425 174.793 16.2259V8.85019H173.109V7.13776H174.793V3.98633H176.951V7.13776H180.34V8.85019H176.951H176.948Z" fill="#3B68FC"/>
<path d="M184.71 19.0544C183.722 18.5214 182.95 17.7637 182.387 16.7835C181.826 15.801 181.545 14.6633 181.545 13.3702C181.545 12.0772 181.834 10.9626 182.411 9.98014C182.988 8.99763 183.772 8.24453 184.768 7.71852C185.764 7.19483 186.877 6.93066 188.109 6.93066C189.34 6.93066 190.454 7.19251 191.45 7.71852C192.445 8.24453 193.232 8.99531 193.807 9.96855C194.384 10.9418 194.673 12.0772 194.673 13.3702C194.673 14.6633 194.377 15.801 193.785 16.7835C193.193 17.766 192.39 18.5238 191.38 19.0544C190.37 19.5874 189.246 19.8538 188.015 19.8538C186.784 19.8538 185.696 19.5874 184.71 19.0544ZM190.197 17.5019C190.875 17.152 191.426 16.6259 191.844 15.9261C192.263 15.2263 192.472 14.3736 192.472 13.3679C192.472 12.3622 192.265 11.5118 191.856 10.812C191.445 10.1122 190.909 9.59084 190.245 9.24789C189.581 8.90494 188.862 8.73347 188.087 8.73347C187.313 8.73347 186.574 8.90494 185.918 9.24789C185.261 9.59084 184.737 10.1122 184.342 10.812C183.948 11.5118 183.751 12.3646 183.751 13.3679C183.751 14.3713 183.943 15.2495 184.33 15.947C184.717 16.6468 185.235 17.1682 185.882 17.5111C186.529 17.8541 187.241 18.0256 188.015 18.0256C188.789 18.0256 189.516 17.8518 190.194 17.5019H190.197Z" fill="#3B68FC"/>
<path d="M200.702 7.50239C201.405 7.10614 202.263 6.90918 203.274 6.90918V9.05493H202.706C200.289 9.05493 199.081 10.3178 199.081 12.8459V19.6493H196.924V7.13627H199.081V9.16848C199.461 8.45245 200.003 7.89864 200.705 7.50239H200.702Z" fill="#3B68FC"/>
</g>
<defs>
<clipPath id="clip0_2772_294411">
<rect width="204" height="20" fill="white"/>
</clipPath>
</defs>
</svg>
